<svg width="200" height="200" version="1.1" xmlns="http://www.w3.org/2000/svg" desc="Created with imagetracer.js version 1.2.6" ><path fill="rgb(244,247,249)" stroke="rgb(244,247,249)" stroke-width="1" opacity="1" d="M 63.5 43 L 62.5 45 L 63.5 43 Z " /><path fill="rgb(244,247,249)" stroke="rgb(244,247,249)" stroke-width="1" opacity="1" d="M 73 45 L 82 45 L 82 54 L 73 54 L 73 45 Z " /><path fill="rgb(244,247,249)" stroke="rgb(244,247,249)" stroke-width="1" opacity="1" d="M 92 45 L 101 45 L 101 54 L 92 54 L 92 45 Z " /><path fill="rgb(244,247,249)" stroke="rgb(244,247,249)" stroke-width="1" opacity="1" d="M 83 55 L 91 55 L 91 64 L 83 64 L 83 55 Z " /><path fill="rgb(244,247,249)" stroke="rgb(244,247,249)" stroke-width="1" opacity="1" d="M 142.5 57 L 143.5 59 L 142.5 57 Z " /><path fill="rgb(244,247,249)" stroke="rgb(244,247,249)" stroke-width="1" opacity="1" d="M 73.5 64 L 81 64 L 81 74 L 73.5 74 L 72 72.5 Q 70.3 65.8 73.5 64 Z " /><path fill="rgb(244,247,249)" stroke="rgb(244,247,249)" stroke-width="1" opacity="1" d="M 90.5 68 L 93.5 68 L 131 81 Q 132.1 83.7 129.5 83 L 119 87.5 L 141 111.5 L 138.5 115 L 132.5 120 L 133 118.5 L 111.5 96 L 109 97.5 L 106 107 Q 103.3 108.1 104 105.5 L 90.5 68 Z " /><path fill="rgb(244,247,249)" stroke="rgb(244,247,249)" stroke-width="1" opacity="1" d="M 62.5 81 Q 65.5 81.5 65 85.5 L 64 85.5 L 62.5 81 Z " /><path fill="rgb(244,247,249)" stroke="rgb(244,247,249)" stroke-width="1" opacity="1" d="M 151.5 81 L 152 86.5 L 151 86.5 L 151.5 81 Z " /><path fill="rgb(244,247,249)" stroke="rgb(244,247,249)" stroke-width="1" opacity="1" d="M 108.5 137 L 107.5 139 L 108.5 137 Z " /><path fill="rgb(244,247,249)" stroke="rgb(244,247,249)" stroke-width="1" opacity="1" d="M 55.5 138 L 56.5 140 L 55.5 138 Z " /><path fill="rgb(244,247,249)" stroke="rgb(244,247,249)" stroke-width="1" opacity="1" d="M 98.5 139 L 99.5 141 L 98.5 139 Z " /><path fill="rgb(244,247,249)" stroke="rgb(244,247,249)" stroke-width="1" opacity="1" d="M 42.5 140 L 41.5 142 L 42.5 140 Z " /><path fill="rgb(244,247,249)" stroke="rgb(244,247,249)" stroke-width="1" opacity="1" d="M 76.5 140 L 80 140.5 L 76.5 141 L 76.5 140 Z " /><path fill="rgb(244,247,249)" stroke="rgb(244,247,249)" stroke-width="1" opacity="1" d="M 92.5 140 L 95 140.5 L 92.5 141 L 92.5 140 Z " /><path fill="rgb(244,247,249)" stroke="rgb(244,247,249)" stroke-width="1" opacity="1" d="M 121.5 140 L 124 140.5 L 121.5 141 L 121.5 140 Z " /><path fill="rgb(244,247,249)" stroke="rgb(244,247,249)" stroke-width="1" opacity="1" d="M 133.5 140 L 136 140.5 L 133.5 141 L 133.5 140 Z " /><path fill="rgb(244,247,249)" stroke="rgb(244,247,249)" stroke-width="1" opacity="1" d="M 114.5 141 L 115 151.5 L 112 149.5 L 114 149.5 L 114.5 141 Z " /><path fill="rgb(244,247,249)" stroke="rgb(244,247,249)" stroke-width="1" opacity="1" d="M 125.5 141 L 127.5 144 L 125.5 141 Z " /><path fill="rgb(244,247,249)" stroke="rgb(244,247,249)" stroke-width="1" opacity="1" d="M 130.5 141 L 129.5 143 L 130.5 141 Z " /><path fill="rgb(244,247,249)" stroke="rgb(244,247,249)" stroke-width="1" opacity="1" d="M 137.5 141 L 140 142.5 L 140.5 141 L 141 153.5 L 139 152.5 Q 141.8 150.8 140 144.5 L 137.5 141 Z " /><path fill="rgb(244,247,249)" stroke="rgb(244,247,249)" stroke-width="1" opacity="1" d="M 48.5 142 L 51 142.5 L 47.5 144 L 48.5 142 Z " /><path fill="rgb(244,247,249)" stroke="rgb(244,247,249)" stroke-width="1" opacity="1" d="M 100.5 142 L 101.5 144 L 100.5 142 Z " /><path fill="rgb(244,247,249)" stroke="rgb(244,247,249)" stroke-width="1" opacity="1" d="M 48.5 146 L 47.5 148 L 48.5 146 Z " /><path fill="rgb(244,247,249)" stroke="rgb(244,247,249)" stroke-width="1" opacity="1" d="M 122.5 148 L 121.5 150 L 122.5 148 Z " /><path fill="rgb(244,247,249)" stroke="rgb(244,247,249)" stroke-width="1" opacity="1" d="M 105.5 151 L 104.5 153 L 105.5 151 Z " /><path fill="rgb(244,247,249)" stroke="rgb(244,247,249)" stroke-width="1" opacity="1" d="M 73.5 152 L 74.5 154 L 73.5 152 Z " /><path fill="rgb(244,247,249)" stroke="rgb(244,247,249)" stroke-width="1" opacity="1" d="M 114.5 154 L 115 158.5 L 114 158.5 L 114.5 154 Z " /><path fill="rgb(244,247,249)" stroke="rgb(244,247,249)" stroke-width="1" opacity="1" d="M 53.5 164 L 54 167 L 52 166.5 L 53.5 164 Z " /><path fill="rgb(244,247,249)" stroke="rgb(244,247,249)" stroke-width="1" opacity="1" d="M 72.5 164 L 75 164.5 L 72.5 165 L 72.5 164 Z " /><path fill="rgb(244,247,249)" stroke="rgb(244,247,249)" stroke-width="1" opacity="1" d="M 88.5 164 L 90 164.5 L 87.5 166 L 88.5 164 Z " /><path fill="rgb(244,247,249)" stroke="rgb(244,247,249)" stroke-width="1" opacity="1" d="M 137.5 164 L 140 164.5 L 137 165 L 138 171.5 L 136 172 L 136 165.5 L 137.5 164 Z " /><path fill="rgb(244,247,249)" stroke="rgb(244,247,249)" stroke-width="1" opacity="1" d="M 30.5 166 L 33.5 167 L 35 166.5 Q 33.8 169.3 32.5 167 Q 28.3 165.7 30 170.5 L 30.5 172 L 28 168.5 L 30.5 166 Z " /><path fill="rgb(244,247,249)" stroke="rgb(244,247,249)" stroke-width="1" opacity="1" d="M 49.5 166 L 50.5 168 L 49.5 166 Z " /><path fill="rgb(244,247,249)" stroke="rgb(244,247,249)" stroke-width="1" opacity="1" d="M 58.5 166 L 60.5 166 L 63 166.5 L 60 167 L 59.5 170 L 58.5 166 Z " /><path fill="rgb(244,247,249)" stroke="rgb(244,247,249)" stroke-width="1" opacity="1" d="M 76.5 166 L 79 166.5 L 76 168 L 76.5 166 Z " /><path fill="rgb(244,247,249)" stroke="rgb(244,247,249)" stroke-width="1" opacity="1" d="M 96.5 166 Q 105.4 164.1 109 167.5 L 107.5 168 L 101 167 L 102 171.5 L 100 172 Q 101 168.2 98.5 167 Q 95.5 167.5 96.5 166 Z " /><path fill="rgb(244,247,249)" stroke="rgb(244,247,249)" stroke-width="1" opacity="1" d="M 111.5 166 L 114.5 167 L 116.5 166 L 116.5 167 Q 113.5 166.1 115 170.5 L 115.5 172 L 113.5 172 L 110 171.5 L 114 171 Q 116.1 165.8 111.5 167 L 111.5 166 Z " /><path fill="rgb(244,247,249)" stroke="rgb(244,247,249)" stroke-width="1" opacity="1" d="M 123.5 166 L 125.5 167 L 127 166.5 L 124.5 168 L 123.5 166 Z " /><path fill="rgb(244,247,249)" stroke="rgb(244,247,249)" stroke-width="1" opacity="1" d="M 139.5 166 L 138.5 168 L 139.5 166 Z " /><path fill="rgb(244,247,249)" stroke="rgb(244,247,249)" stroke-width="1" opacity="1" d="M 141 166 L 144 166.5 L 141.5 168 L 141 166 Z " /><path fill="rgb(244,247,249)" stroke="rgb(244,247,249)" stroke-width="1" opacity="1" d="M 145.5 166 L 146 169.5 L 145 169.5 L 145.5 166 Z " /><path fill="rgb(244,247,249)" stroke="rgb(244,247,249)" stroke-width="1" opacity="1" d="M 158.5 166 L 161 166.5 L 158.5 167 L 158.5 166 Z " /><path fill="rgb(244,247,249)" stroke="rgb(244,247,249)" stroke-width="1" opacity="1" d="M 170.5 166 L 173 166.5 L 172 168.5 L 172.5 172 L 171.5 169 L 170 168.5 L 170.5 166 Z " /><path fill="rgb(244,247,249)" stroke="rgb(244,247,249)" stroke-width="1" opacity="1" d="M 174.5 166 L 175.5 168 L 174.5 166 Z " /><path fill="rgb(244,247,249)" stroke="rgb(244,247,249)" stroke-width="1" opacity="1" d="M 117.5 168 L 119 171.5 L 117 170.5 L 117.5 168 Z " /><path fill="rgb(244,247,249)" stroke="rgb(244,247,249)" stroke-width="1" opacity="1" d="M 130.5 168 Q 135 170 131.5 172 L 130.5 168 Z " /><path fill="rgb(244,247,249)" stroke="rgb(244,247,249)" stroke-width="1" opacity="1" d="M 151.5 168 L 152 169.5 L 150 170.5 L 151.5 168 Z " /><path fill="rgb(244,247,249)" stroke="rgb(244,247,249)" stroke-width="1" opacity="1" d="M 159.5 168 L 160 170.5 L 158 171.5 L 159.5 168 Z " /><path fill="rgb(244,247,249)" stroke="rgb(244,247,249)" stroke-width="1" opacity="1" d="M 73.5 169 L 74 170.5 L 72 171.5 L 73.5 169 Z " /><path fill="rgb(244,247,249)" stroke="rgb(244,247,249)" stroke-width="1" opacity="1" d="M 84.5 169 L 85 172 L 83 171.5 L 84.5 169 Z " /><path fill="rgb(244,247,249)" stroke="rgb(244,247,249)" stroke-width="1" opacity="1" d="M 123.5 169 L 126 170.5 L 122.5 172 L 122.5 171 L 124 170.5 L 123.5 169 Z " /><path fill="rgb(244,247,249)" stroke="rgb(244,247,249)" stroke-width="1" opacity="1" d="M 175.5 169 L 176 170.5 L 174 171.5 L 175.5 169 Z " /><path fill="rgb(244,247,249)" stroke="rgb(244,247,249)" stroke-width="1" opacity="1" d="M 153.5 171 L 152.5 173 L 153.5 171 Z " /><path fill="rgb(151,199,85)" stroke="rgb(151,199,85)" stroke-width="1" opacity="1" d="M 77.5 35 L 91.5 35 L 101 40.5 Q 89.3 42.3 82.5 49 L 82 45 L 72 45 L 72 53.5 L 75 55.5 Q 65.3 64.8 64.5 83 Q 59.3 78.3 57 70.5 L 57 56.5 Q 59.6 45.6 67.5 40 L 77.5 35 Z " /><path fill="rgb(151,199,85)" stroke="rgb(151,199,85)" stroke-width="1" opacity="1" d="M 102.5 41 L 114.5 41 L 122.5 43 Q 135.4 48.1 143 58.5 Q 151.2 68.8 151 87.5 L 149 97 L 124.5 91 L 123.5 92 L 120 88.5 L 121.5 86 L 131 82.5 L 129.5 80 Q 117.8 77.8 109 72.5 Q 112.6 67.1 111 56.5 Q 108.3 46.4 102.5 41 Z " /><path fill="rgb(151,199,85)" stroke="rgb(151,199,85)" stroke-width="1" opacity="1" d="M 60.5 105 Q 68.5 103.5 70 108.5 Q 71.5 116.5 66.5 118 Q 58.5 119.5 57 114.5 Q 55.5 106.5 60.5 105 Z " /><path fill="rgb(151,199,85)" stroke="rgb(151,199,85)" stroke-width="1" opacity="1" d="M 54.5 138 L 56.5 141 L 54.5 138 Z " /><path fill="rgb(151,199,85)" stroke="rgb(151,199,85)" stroke-width="1" opacity="1" d="M 152.5 138 Q 156.3 137.3 157 139.5 L 159 144.5 L 158 144.5 L 156 139 Q 151.6 140 152.5 138 Z " /><path fill="rgb(151,199,85)" stroke="rgb(151,199,85)" stroke-width="1" opacity="1" d="M 59.5 141 Q 63.3 140.3 64 142.5 L 62.5 142 Q 58.5 142.8 59.5 141 Z " /><path fill="rgb(151,199,85)" stroke="rgb(151,199,85)" stroke-width="1" opacity="1" d="M 67.5 141 Q 72.9 139.1 72 142.5 L 70.5 142 Q 66.5 142.8 67.5 141 Z " /><path fill="rgb(151,199,85)" stroke="rgb(151,199,85)" stroke-width="1" opacity="1" d="M 86.5 141 L 90 141.5 L 86.5 142 L 86.5 141 Z " /><path fill="rgb(151,199,85)" stroke="rgb(151,199,85)" stroke-width="1" opacity="1" d="M 115.5 141 L 119 141.5 L 115.5 142 L 115.5 141 Z " /><path fill="rgb(151,199,85)" stroke="rgb(151,199,85)" stroke-width="1" opacity="1" d="M 141.5 141 Q 145.3 140.3 146 142.5 L 144.5 142 Q 140.5 142.8 141.5 141 Z " /><path fill="rgb(151,199,85)" stroke="rgb(151,199,85)" stroke-width="1" opacity="1" d="M 41.5 144 L 42 146.5 L 41 146.5 L 41.5 144 Z " /><path fill="rgb(151,199,85)" stroke="rgb(151,199,85)" stroke-width="1" opacity="1" d="M 51.5 145 L 52.5 147 L 51.5 145 Z " /><path fill="rgb(151,199,85)" stroke="rgb(151,199,85)" stroke-width="1" opacity="1" d="M 84.5 145 L 85 149.5 L 84 149.5 L 84.5 145 Z " /><path fill="rgb(151,199,85)" stroke="rgb(151,199,85)" stroke-width="1" opacity="1" d="M 127 145 L 129 145.5 L 128 148.5 L 128.5 150 Q 126 148.8 127 145 Z " /><path fill="rgb(151,199,85)" stroke="rgb(151,199,85)" stroke-width="1" opacity="1" d="M 156.5 145 L 157 152.5 L 153.5 154 L 153.5 153 L 156 153 L 156.5 145 Z " /><path fill="rgb(151,199,85)" stroke="rgb(151,199,85)" stroke-width="1" opacity="1" d="M 49.5 146 L 49 147.5 Q 49.8 149.8 47.5 149 L 49.5 146 Z " /><path fill="rgb(151,199,85)" stroke="rgb(151,199,85)" stroke-width="1" opacity="1" d="M 90.5 146 L 91 152.5 L 87.5 154 L 87.5 153 L 90 153 L 90.5 146 Z " /><path fill="rgb(151,199,85)" stroke="rgb(151,199,85)" stroke-width="1" opacity="1" d="M 93.5 146 L 94 153 L 98.5 152 L 103 153.5 L 99.5 154 L 97.5 154 Q 93.8 154.8 93 152.5 L 93.5 146 Z " /><path fill="rgb(151,199,85)" stroke="rgb(151,199,85)" stroke-width="1" opacity="1" d="M 145.5 147 L 146 152.5 L 142.5 154 L 142.5 153 L 145 153 L 145.5 147 Z " /><path fill="rgb(151,199,85)" stroke="rgb(151,199,85)" stroke-width="1" opacity="1" d="M 137.5 148 L 136.5 150 L 137.5 148 Z " /><path fill="rgb(151,199,85)" stroke="rgb(151,199,85)" stroke-width="1" opacity="1" d="M 126.5 151 L 125.5 153 L 126.5 151 Z " /><path fill="rgb(151,199,85)" stroke="rgb(151,199,85)" stroke-width="1" opacity="1" d="M 108.5 152 L 114 153.5 L 109.5 154 L 108.5 152 Z " /><path fill="rgb(151,199,85)" stroke="rgb(151,199,85)" stroke-width="1" opacity="1" d="M 48.5 153 L 53 153.5 L 48.5 154 L 48.5 153 Z " /><path fill="rgb(151,199,85)" stroke="rgb(151,199,85)" stroke-width="1" opacity="1" d="M 76.5 153 L 80 153.5 L 76.5 154 L 76.5 153 Z " /><path fill="rgb(151,199,85)" stroke="rgb(151,199,85)" stroke-width="1" opacity="1" d="M 119.5 153 L 120 157.5 L 119 157.5 L 119.5 153 Z " /><path fill="rgb(151,199,85)" stroke="rgb(151,199,85)" stroke-width="1" opacity="1" d="M 121.5 153 L 124 153.5 L 121.5 154 L 121.5 153 Z " /><path fill="rgb(151,199,85)" stroke="rgb(151,199,85)" stroke-width="1" opacity="1" d="M 133.5 153 L 136 153.5 L 133.5 154 L 133.5 153 Z " /><path fill="rgb(151,199,85)" stroke="rgb(151,199,85)" stroke-width="1" opacity="1" d="M 137.5 166 L 138 168 Q 140.7 169.1 140 166.5 L 141 166.5 L 139.5 169 Q 137.3 168.3 138 170.5 L 137 170.5 L 137.5 166 Z " /><path fill="rgb(151,199,85)" stroke="rgb(151,199,85)" stroke-width="1" opacity="1" d="M 52.5 167 L 53 170.5 L 52 170.5 L 52.5 167 Z " /><path fill="rgb(151,199,85)" stroke="rgb(151,199,85)" stroke-width="1" opacity="1" d="M 83.5 167 L 84 170.5 L 83 170.5 L 83.5 167 Z " /><path fill="rgb(151,199,85)" stroke="rgb(151,199,85)" stroke-width="1" opacity="1" d="M 72.5 168 L 75 168.5 L 72.5 169 L 72.5 168 Z " /><path fill="rgb(254,255,254)" stroke="rgb(254,255,254)" stroke-width="1" opacity="1" d="M 68.5 38 L 66.5 41 L 68.5 38 Z " /><path fill="rgb(254,255,254)" stroke="rgb(254,255,254)" stroke-width="1" opacity="1" d="M 136.5 50 L 137.5 52 L 136.5 50 Z " /><path fill="rgb(254,255,254)" stroke="rgb(254,255,254)" stroke-width="1" opacity="1" d="M 60.5 79 L 61.5 81 L 60.5 79 Z " /><path fill="rgb(254,255,254)" stroke="rgb(254,255,254)" stroke-width="1" opacity="1" d="M 64.5 86 L 65 91.5 L 64 91.5 L 64.5 86 Z " /><path fill="rgb(254,255,254)" stroke="rgb(254,255,254)" stroke-width="1" opacity="1" d="M 68.5 105 L 71 106.5 L 69.5 106 L 68.5 105 Z " /><path fill="rgb(254,255,254)" stroke="rgb(254,255,254)" stroke-width="1" opacity="1" d="M 142.5 110 L 140.5 113 L 142.5 110 Z " /><path fill="rgb(254,255,254)" stroke="rgb(254,255,254)" stroke-width="1" opacity="1" d="M 75.5 113 L 77.5 116 L 75.5 113 Z " /><path fill="rgb(254,255,254)" stroke="rgb(254,255,254)" stroke-width="1" opacity="1" d="M 137.5 115 L 134.5 119 L 137.5 115 Z " /><path fill="rgb(254,255,254)" stroke="rgb(254,255,254)" stroke-width="1" opacity="1" d="M 57.5 140 L 64 140.5 L 57.5 141 L 57.5 140 Z " /><path fill="rgb(254,255,254)" stroke="rgb(254,255,254)" stroke-width="1" opacity="1" d="M 67.5 140 L 72 140.5 L 67.5 141 L 67.5 140 Z " /><path fill="rgb(254,255,254)" stroke="rgb(254,255,254)" stroke-width="1" opacity="1" d="M 86.5 140 L 91 140.5 L 86.5 141 L 86.5 140 Z " /><path fill="rgb(254,255,254)" stroke="rgb(254,255,254)" stroke-width="1" opacity="1" d="M 115.5 140 L 119 140.5 L 115.5 141 L 115.5 140 Z " /><path fill="rgb(254,255,254)" stroke="rgb(254,255,254)" stroke-width="1" opacity="1" d="M 141.5 140 L 146 140.5 L 141.5 141 L 141.5 140 Z " /><path fill="rgb(254,255,254)" stroke="rgb(254,255,254)" stroke-width="1" opacity="1" d="M 127.5 151 L 130 152.5 L 128.5 152 L 127.5 151 Z " /><path fill="rgb(254,255,254)" stroke="rgb(254,255,254)" stroke-width="1" opacity="1" d="M 51.5 164 L 52 165.5 L 50 166.5 L 51.5 164 Z " /><path fill="rgb(254,255,254)" stroke="rgb(254,255,254)" stroke-width="1" opacity="1" d="M 43.5 166 L 44 167.5 L 44 169.5 L 42.5 172 L 43 170.5 L 42.5 169 L 41 169.5 L 43.5 166 Z " /><path fill="rgb(254,255,254)" stroke="rgb(254,255,254)" stroke-width="1" opacity="1" d="M 129.5 166 L 130.5 168 L 129.5 166 Z " /><path fill="rgb(254,255,254)" stroke="rgb(254,255,254)" stroke-width="1" opacity="1" d="M 157.5 166 L 158 171.5 L 157 171.5 L 157.5 166 Z " /><path fill="rgb(254,255,254)" stroke="rgb(254,255,254)" stroke-width="1" opacity="1" d="M 161 166 L 163 166.5 L 161.5 170 Q 158.7 168.8 161 167.5 L 161 166 Z " /><path fill="rgb(254,255,254)" stroke="rgb(254,255,254)" stroke-width="1" opacity="1" d="M 90.5 167 L 89.5 169 L 90.5 167 Z " /><path fill="rgb(254,255,254)" stroke="rgb(254,255,254)" stroke-width="1" opacity="1" d="M 56.5 168 Q 58.8 167.3 58 169.5 L 56.5 168 Z " /><path fill="rgb(254,255,254)" stroke="rgb(254,255,254)" stroke-width="1" opacity="1" d="M 110.5 168 Q 112.8 167.3 112 169.5 L 110.5 168 Z " /><path fill="rgb(254,255,254)" stroke="rgb(254,255,254)" stroke-width="1" opacity="1" d="M 116.5 168 L 118 171.5 L 116 172 L 116.5 168 Z " /><path fill="rgb(254,255,254)" stroke="rgb(254,255,254)" stroke-width="1" opacity="1" d="M 123.5 168 L 125 168.5 L 122.5 170 L 123.5 168 Z " /><path fill="rgb(254,255,254)" stroke="rgb(254,255,254)" stroke-width="1" opacity="1" d="M 33.5 170 L 34.5 172 L 33.5 170 Z " /><path fill="rgb(254,255,254)" stroke="rgb(254,255,254)" stroke-width="1" opacity="1" d="M 54.5 170 L 55.5 172 L 54.5 170 Z " /><path fill="rgb(254,255,254)" stroke="rgb(254,255,254)" stroke-width="1" opacity="1" d="M 59.5 170 L 58.5 172 L 59.5 170 Z " /><path fill="rgb(254,255,254)" stroke="rgb(254,255,254)" stroke-width="1" opacity="1" d="M 90.5 170 L 91.5 172 L 90.5 170 Z " /><path fill="rgb(255,255,255)" stroke="rgb(255,255,255)" stroke-width="1" opacity="1" d="M 0 0 L 200 0 L 200 200 L 0 200 L 0 0 Z M 78 34 L 69 38 L 62 45 Q 63 47 60 46 L 56 58 L 57 74 L 64 84 L 64 92 L 69 105 L 67 104 L 59 105 L 56 109 Q 55 115 57 117 L 61 119 L 67 119 Q 73 118 71 109 L 70 106 L 75 114 Q 84 124 100 127 L 117 127 Q 128 125 135 119 L 147 105 L 150 98 L 152 88 L 152 80 L 150 70 L 145 60 L 142 57 L 138 52 Q 131 44 120 41 L 102 40 Q 98 35 91 34 L 78 34 Z M 47 137 L 43 138 L 41 142 L 41 150 L 47 154 L 53 154 L 53 157 L 58 154 L 57 152 L 60 146 Q 59 150 62 152 L 62 154 L 68 154 L 71 147 L 72 152 Q 74 156 82 154 L 86 149 L 86 154 L 91 154 L 91 146 L 93 147 L 93 154 L 105 154 L 107 151 L 109 154 Q 117 152 114 159 L 120 159 L 120 154 L 126 154 L 126 152 L 132 154 L 139 154 L 141 154 L 146 154 L 146 147 L 151 146 L 152 147 L 152 154 L 157 154 L 157 147 L 159 146 L 159 141 Q 156 141 157 138 L 152 138 L 152 140 L 147 141 L 142 140 L 140 143 L 136 140 Q 130 139 129 143 L 125 140 L 120 141 L 116 140 L 114 142 L 114 150 L 110 146 L 115 139 Q 116 136 109 137 L 107 140 L 105 139 L 105 137 L 98 137 L 98 140 L 102 145 L 100 150 Q 96 149 98 143 Q 97 139 93 140 L 91 140 Q 84 138 86 145 L 85 145 Q 86 142 83 143 L 83 141 L 81 140 L 75 141 L 72 143 Q 73 138 68 140 L 65 144 L 64 140 Q 56 142 54 137 L 47 137 Z M 24 164 L 24 172 Q 27 173 26 169 L 29 169 Q 28 173 31 172 L 33 168 L 33 171 Q 34 173 38 172 L 39 170 L 43 172 L 45 172 L 46 172 L 46 164 Q 43 163 44 166 L 39 166 L 39 168 L 38 166 L 30 166 Q 28 163 24 164 Z M 51 164 L 52 172 L 55 171 L 59 172 L 61 172 Q 63 173 62 170 L 63 170 Q 62 173 65 172 L 67 172 Q 69 173 68 169 L 66 170 L 65 166 L 60 167 L 56 166 L 54 167 Q 55 162 51 164 Z M 72 164 L 72 172 Q 75 173 74 169 L 77 169 L 79 172 L 82 171 L 82 166 L 77 166 Q 77 163 72 164 Z M 89 164 L 87 166 L 83 166 L 83 172 Q 86 173 85 170 L 87 169 Q 86 173 89 172 L 90 169 L 92 172 Q 96 173 95 171 L 96 171 Q 95 173 98 172 L 100 168 L 100 172 Q 103 173 102 169 L 103 169 Q 102 173 105 172 L 106 169 L 106 172 L 109 171 L 119 172 L 119 166 L 110 166 L 108 166 L 97 166 L 96 168 L 95 168 Q 96 165 92 166 L 90 167 Q 91 163 89 164 Z M 136 164 L 136 172 Q 139 173 138 169 Q 144 167 142 172 Q 145 173 144 170 L 148 172 L 152 170 L 152 173 L 158 172 Q 161 173 160 170 L 162 171 L 162 172 L 166 172 L 166 166 L 152 166 L 152 168 L 151 166 L 143 166 Q 140 163 136 164 Z M 47 166 Q 46 171 49 172 L 51 171 Q 53 164 47 166 Z M 120 166 Q 119 171 122 172 L 125 171 L 129 172 L 131 171 Q 130 173 133 172 Q 134 168 131 169 L 130 166 L 126 167 L 120 166 Z M 167 166 L 167 172 L 172 171 L 175 172 Q 177 171 176 166 L 172 167 L 167 166 Z " /><path fill="rgb(255,255,255)" stroke="rgb(255,255,255)" stroke-width="1" opacity="1" d="M 48 143 Q 51.8 142 53 144.5 L 47.5 146 L 48 144.5 L 48 143 Z " /><path fill="rgb(255,255,255)" stroke="rgb(255,255,255)" stroke-width="1" opacity="1" d="M 77 146 Q 80.3 144.9 79 149 Q 75.7 150.1 77 146 Z " /><path fill="rgb(255,255,255)" stroke="rgb(255,255,255)" stroke-width="1" opacity="1" d="M 120 146 Q 123 144.8 122 148.5 L 120 147.5 L 120 146 Z " /><path fill="rgb(93,53,46)" stroke="rgb(93,53,46)" stroke-width="1" opacity="1" d="M 48.5 137 Q 55.8 137.3 58 142.5 Q 58.8 148.8 56 151.5 L 57 153.5 L 53 155 Q 54.1 151.5 46.5 153 L 43 150.5 L 42 142.5 L 44.5 139 L 48.5 137 Z M 47 142 L 46 145 L 47 148 Q 46 150 49 149 L 51 146 L 53 147 L 53 144 Q 52 141 47 142 Z " /><path fill="rgb(93,53,46)" stroke="rgb(93,53,46)" stroke-width="1" opacity="1" d="M 99 138 Q 103.6 136.8 105 139.5 Q 104.3 141.8 106.5 141 Q 107.5 137 113.5 138 L 112 140.5 L 109 145.5 L 114 152.5 L 109.5 153 L 105.5 150 L 104 153 L 99 153 L 99 151.5 L 103 146.5 L 103 144.5 L 99 138 Z " /><path fill="rgb(93,53,46)" stroke="rgb(93,53,46)" stroke-width="1" opacity="1" d="M 152 139 L 156 139 L 156 140.5 Q 158.8 141.6 158 145 L 156 145.5 L 156 153 L 152 153 Q 153.5 146.1 150.5 143 L 149 146 L 145 147.5 Q 147.4 155.3 141 153 L 141 142 L 144.5 142 L 146.5 142 L 149.5 141 L 152 142 L 152 139 Z " /><path fill="rgb(93,53,46)" stroke="rgb(93,53,46)" stroke-width="1" opacity="1" d="M 77.5 141 Q 82.3 141.3 84 144.5 Q 85.5 151.5 81.5 153 Q 74.8 154.8 73 151.5 L 72 144.5 L 77.5 141 Z M 78 145 L 76 147 L 78 150 L 80 149 Q 82 144 78 145 Z " /><path fill="rgb(93,53,46)" stroke="rgb(93,53,46)" stroke-width="1" opacity="1" d="M 93.5 141 L 97 142 Q 99.1 145.4 98 153 L 94 153 L 94 146.5 L 91.5 145 L 90 146.5 L 90 153 L 86 153 L 86 142 L 92.5 142 L 93.5 141 Z " /><path fill="rgb(93,53,46)" stroke="rgb(93,53,46)" stroke-width="1" opacity="1" d="M 121.5 141 L 126 142 Q 127.7 144.4 127 150.5 Q 125.3 154.5 119 153 Q 121.4 160.1 115 158 L 115 142 L 120.5 142 L 121.5 141 Z M 121 145 L 119 149 L 123 150 L 123 145 L 121 145 Z " /><path fill="rgb(93,53,46)" stroke="rgb(93,53,46)" stroke-width="1" opacity="1" d="M 133.5 141 L 139 143.5 L 140 148 L 133 148.5 L 136.5 150 L 138 149.5 L 139 151.5 Q 137.5 154.5 131.5 153 Q 128.3 151.3 128 146.5 L 130 142 L 133.5 141 Z M 134 145 L 134 146 L 136 146 L 134 145 Z " /><path fill="rgb(93,53,46)" stroke="rgb(93,53,46)" stroke-width="1" opacity="1" d="M 59 142 Q 62.8 141 64 143.5 L 65.5 147 L 67.5 142 Q 71.9 140.5 71 143.5 L 67 153 L 63 153 L 63 151.5 L 59 142 Z " /><path fill="rgb(221,219,208)" stroke="rgb(221,219,208)" stroke-width="1" opacity="1" d="M 80.5 34 L 89 34.5 L 80.5 35 L 80.5 34 Z " /><path fill="rgb(221,219,208)" stroke="rgb(221,219,208)" stroke-width="1" opacity="1" d="M 104.5 40 L 111 40.5 L 104.5 41 L 104.5 40 Z " /><path fill="rgb(221,219,208)" stroke="rgb(221,219,208)" stroke-width="1" opacity="1" d="M 115.5 41 L 118 41.5 L 115.5 42 L 115.5 41 Z " /><path fill="rgb(221,219,208)" stroke="rgb(221,219,208)" stroke-width="1" opacity="1" d="M 62.5 45 L 61.5 47 L 62.5 45 Z " /><path fill="rgb(221,219,208)" stroke="rgb(221,219,208)" stroke-width="1" opacity="1" d="M 72.5 45 L 73 54 L 81.5 54 L 83 55.5 L 81.5 74 L 81 64.5 L 82 63.5 L 82 55 L 73.5 55 L 72 53.5 L 72.5 45 Z " /><path fill="rgb(221,219,208)" stroke="rgb(221,219,208)" stroke-width="1" opacity="1" d="M 91.5 45 L 92 54 L 101 54.5 L 92 55 L 91.5 64 L 91.5 45 Z " /><path fill="rgb(221,219,208)" stroke="rgb(221,219,208)" stroke-width="1" opacity="1" d="M 131.5 47 L 132.5 49 L 131.5 47 Z " /><path fill="rgb(221,219,208)" stroke="rgb(221,219,208)" stroke-width="1" opacity="1" d="M 134.5 49 L 141.5 57 L 134.5 49 Z " /><path fill="rgb(221,219,208)" stroke="rgb(221,219,208)" stroke-width="1" opacity="1" d="M 56.5 58 L 57 67.5 L 56 67.5 L 56.5 58 Z " /><path fill="rgb(221,219,208)" stroke="rgb(221,219,208)" stroke-width="1" opacity="1" d="M 144.5 61 L 145.5 63 L 144.5 61 Z " /><path fill="rgb(221,219,208)" stroke="rgb(221,219,208)" stroke-width="1" opacity="1" d="M 150.5 76 L 151 78.5 L 150 78.5 L 150.5 76 Z " /><path fill="rgb(221,219,208)" stroke="rgb(221,219,208)" stroke-width="1" opacity="1" d="M 120.5 86 L 120 87.5 L 141.5 110 L 143 109.5 L 141.5 111 L 119 88.5 L 120.5 86 Z " /><path fill="rgb(221,219,208)" stroke="rgb(221,219,208)" stroke-width="1" opacity="1" d="M 150.5 88 L 151 91.5 L 150 91.5 L 150.5 88 Z " /><path fill="rgb(221,219,208)" stroke="rgb(221,219,208)" stroke-width="1" opacity="1" d="M 65.5 91 L 66 93.5 L 65 93.5 L 65.5 91 Z " /><path fill="rgb(221,219,208)" stroke="rgb(221,219,208)" stroke-width="1" opacity="1" d="M 110.5 96 L 133 117.5 L 111.5 97 L 110.5 96 Z " /><path fill="rgb(221,219,208)" stroke="rgb(221,219,208)" stroke-width="1" opacity="1" d="M 61.5 104 L 66 104.5 L 61.5 105 L 61.5 104 Z " /><path fill="rgb(221,219,208)" stroke="rgb(221,219,208)" stroke-width="1" opacity="1" d="M 59.5 105 L 57.5 108 L 59.5 105 Z " /><path fill="rgb(221,219,208)" stroke="rgb(221,219,208)" stroke-width="1" opacity="1" d="M 67.5 105 L 68.5 107 L 67.5 105 Z " /><path fill="rgb(221,219,208)" stroke="rgb(221,219,208)" stroke-width="1" opacity="1" d="M 103.5 105 L 104 107 Q 106.7 108.1 106 105.5 L 107 105.5 L 105.5 108 L 103 106.5 L 103.5 105 Z " /><path fill="rgb(221,219,208)" stroke="rgb(221,219,208)" stroke-width="1" opacity="1" d="M 56.5 109 L 57 113.5 L 56 113.5 L 56.5 109 Z " /><path fill="rgb(221,219,208)" stroke="rgb(221,219,208)" stroke-width="1" opacity="1" d="M 70.5 109 L 71 112.5 L 70 112.5 L 70.5 109 Z " /><path fill="rgb(221,219,208)" stroke="rgb(221,219,208)" stroke-width="1" opacity="1" d="M 74.5 111 L 80.5 118 L 74.5 111 Z " /><path fill="rgb(221,219,208)" stroke="rgb(221,219,208)" stroke-width="1" opacity="1" d="M 58.5 116 L 59.5 118 L 58.5 116 Z " /><path fill="rgb(221,219,208)" stroke="rgb(221,219,208)" stroke-width="1" opacity="1" d="M 82.5 118 L 83.5 120 L 82.5 118 Z " /><path fill="rgb(221,219,208)" stroke="rgb(221,219,208)" stroke-width="1" opacity="1" d="M 98.5 137 Q 104.8 135.8 106 139.5 L 103.5 138 Q 97.5 139.3 98.5 137 Z " /><path fill="rgb(221,219,208)" stroke="rgb(221,219,208)" stroke-width="1" opacity="1" d="M 109.5 137 L 115 137.5 L 109.5 138 L 109.5 137 Z " /><path fill="rgb(221,219,208)" stroke="rgb(221,219,208)" stroke-width="1" opacity="1" d="M 44.5 138 L 43.5 140 L 44.5 138 Z " /><path fill="rgb(221,219,208)" stroke="rgb(221,219,208)" stroke-width="1" opacity="1" d="M 57.5 141 Q 60.3 140.4 59 146.5 L 58 146.5 L 57.5 141 Z " /><path fill="rgb(221,219,208)" stroke="rgb(221,219,208)" stroke-width="1" opacity="1" d="M 81.5 141 L 84.5 145 L 81.5 141 Z " /><path fill="rgb(221,219,208)" stroke="rgb(221,219,208)" stroke-width="1" opacity="1" d="M 51.5 142 L 52.5 144 L 51.5 142 Z " /><path fill="rgb(221,219,208)" stroke="rgb(221,219,208)" stroke-width="1" opacity="1" d="M 73.5 142 L 72.5 144 L 73.5 142 Z " /><path fill="rgb(221,219,208)" stroke="rgb(221,219,208)" stroke-width="1" opacity="1" d="M 149.5 144 L 152 145.5 L 150.5 146 L 149.5 144 Z " /><path fill="rgb(221,219,208)" stroke="rgb(221,219,208)" stroke-width="1" opacity="1" d="M 77.5 145 L 76.5 147 L 77.5 145 Z " /><path fill="rgb(221,219,208)" stroke="rgb(221,219,208)" stroke-width="1" opacity="1" d="M 102.5 146 L 101.5 148 L 102.5 146 Z " /><path fill="rgb(221,219,208)" stroke="rgb(221,219,208)" stroke-width="1" opacity="1" d="M 146.5 146 L 149 146.5 L 146.5 147 L 146.5 146 Z " /><path fill="rgb(221,219,208)" stroke="rgb(221,219,208)" stroke-width="1" opacity="1" d="M 76.5 148 L 78.5 149 L 80 148.5 L 77.5 150 L 76.5 148 Z " /><path fill="rgb(221,219,208)" stroke="rgb(221,219,208)" stroke-width="1" opacity="1" d="M 134 148 L 137 148.5 L 134 150 L 134 148 Z " /><path fill="rgb(221,219,208)" stroke="rgb(221,219,208)" stroke-width="1" opacity="1" d="M 105.5 150 L 108 151.5 L 106.5 151 L 105.5 150 Z " /><path fill="rgb(221,219,208)" stroke="rgb(221,219,208)" stroke-width="1" opacity="1" d="M 83.5 151 L 82.5 153 L 83.5 151 Z " /><path fill="rgb(221,219,208)" stroke="rgb(221,219,208)" stroke-width="1" opacity="1" d="M 113.5 151 L 115 153.5 L 114 153.5 L 113.5 151 Z " /><path fill="rgb(221,219,208)" stroke="rgb(221,219,208)" stroke-width="1" opacity="1" d="M 62.5 152 L 63.5 154 L 62.5 152 Z " /><path fill="rgb(221,219,208)" stroke="rgb(221,219,208)" stroke-width="1" opacity="1" d="M 67.5 152 L 66.5 154 L 67.5 152 Z " /><path fill="rgb(221,219,208)" stroke="rgb(221,219,208)" stroke-width="1" opacity="1" d="M 130.5 152 L 133 153.5 L 131.5 154 L 130.5 152 Z " /><path fill="rgb(221,219,208)" stroke="rgb(221,219,208)" stroke-width="1" opacity="1" d="M 57.5 153 L 55.5 156 L 57.5 153 Z " /><path fill="rgb(221,219,208)" stroke="rgb(221,219,208)" stroke-width="1" opacity="1" d="M 115.5 158 L 120 158.5 L 115.5 159 L 115.5 158 Z " /><path fill="rgb(221,219,208)" stroke="rgb(221,219,208)" stroke-width="1" opacity="1" d="M 24 165 Q 27.8 164 29 166.5 L 27.5 169 L 26.5 166 L 25 168.5 L 26 171 L 24 171 L 24 165 Z " /><path fill="rgb(221,219,208)" stroke="rgb(221,219,208)" stroke-width="1" opacity="1" d="M 72 165 Q 77.6 162.8 76 168.5 L 74.5 168 Q 70.3 169.1 72 165 Z " /><path fill="rgb(221,219,208)" stroke="rgb(221,219,208)" stroke-width="1" opacity="1" d="M 88.5 165 L 90 165.5 L 89 168.5 Q 90 172.3 87 171 Q 85.8 166.4 88.5 165 Z " /><path fill="rgb(221,219,208)" stroke="rgb(221,219,208)" stroke-width="1" opacity="1" d="M 137.5 165 L 141 165.5 L 137.5 166 L 137.5 165 Z " /><path fill="rgb(221,219,208)" stroke="rgb(221,219,208)" stroke-width="1" opacity="1" d="M 35.5 166 L 38 167.5 Q 39.6 173.2 34 171 L 32.5 168 Q 29.9 167.2 31 170.5 L 30 170.5 Q 28.3 165.7 32.5 167 Q 34 169.5 35.5 166 Z " /><path fill="rgb(221,219,208)" stroke="rgb(221,219,208)" stroke-width="1" opacity="1" d="M 41.5 166 L 42.5 168 Q 38.8 167 40 170 L 43 170.5 L 39 171 L 39 167 L 40.5 167 L 41.5 166 Z " /><path fill="rgb(221,219,208)" stroke="rgb(221,219,208)" stroke-width="1" opacity="1" d="M 48.5 166 L 51 171 L 47 170.5 L 47 168.5 L 48.5 166 Z " /><path fill="rgb(221,219,208)" stroke="rgb(221,219,208)" stroke-width="1" opacity="1" d="M 56.5 166 L 59 167.5 Q 60.6 173.2 55 171 L 54.5 169 L 53.5 171 L 53 167.5 Q 54.8 169.1 56.5 166 Z M 56 168 Q 55 171 58 170 Q 59 167 56 168 Z " /><path fill="rgb(221,219,208)" stroke="rgb(221,219,208)" stroke-width="1" opacity="1" d="M 63.5 166 Q 66 167.2 65 171 Q 62 172.3 63 168.5 L 62 168.5 Q 63 172.3 60 171 Q 57.9 165.8 62.5 167 L 63.5 166 Z " /><path fill="rgb(221,219,208)" stroke="rgb(221,219,208)" stroke-width="1" opacity="1" d="M 79.5 166 L 82 167 Q 84.2 172.6 78.5 171 L 77 168.5 L 79.5 166 Z " /><path fill="rgb(221,219,208)" stroke="rgb(221,219,208)" stroke-width="1" opacity="1" d="M 85.5 166 L 86 167.5 L 84 168.5 L 85.5 166 Z " /><path fill="rgb(221,219,208)" stroke="rgb(221,219,208)" stroke-width="1" opacity="1" d="M 92.5 166 L 95 167.5 Q 96.6 173.2 91 171 Q 90 167.2 92.5 166 Z M 92 168 Q 91 171 94 170 Q 95 167 92 168 Z " /><path fill="rgb(221,219,208)" stroke="rgb(221,219,208)" stroke-width="1" opacity="1" d="M 110.5 166 L 114 167 Q 116.3 173 109.5 171 L 109.5 170 Q 113.3 171 112 168 L 108 169.5 Q 108.7 172.1 106 171 L 105.5 168 L 105 171 Q 102 172.3 103 168.5 L 102 168.5 L 101.5 171 L 101 167 L 108.5 168 L 110.5 166 Z " /><path fill="rgb(221,219,208)" stroke="rgb(221,219,208)" stroke-width="1" opacity="1" d="M 117.5 166 Q 119.8 166.8 119 170.5 L 118 170.5 Q 119 166.8 116 168 L 115.5 171 L 115 167 L 117.5 166 Z " /><path fill="rgb(221,219,208)" stroke="rgb(221,219,208)" stroke-width="1" opacity="1" d="M 122.5 166 L 123.5 168 Q 120.9 167.3 122 170 L 124 170.5 L 121.5 171 L 120 167 L 122.5 166 Z " /><path fill="rgb(221,219,208)" stroke="rgb(221,219,208)" stroke-width="1" opacity="1" d="M 127.5 166 L 130 167 Q 132.2 172.6 126.5 171 L 125 168.5 L 127.5 166 Z " /><path fill="rgb(221,219,208)" stroke="rgb(221,219,208)" stroke-width="1" opacity="1" d="M 144.5 166 L 145 167.5 L 144 171 Q 140.3 172.2 142 167 L 144.5 166 Z " /><path fill="rgb(221,219,208)" stroke="rgb(221,219,208)" stroke-width="1" opacity="1" d="M 148.5 166 L 151 167 Q 152.5 170.7 149.5 170 L 148 170.5 L 149.5 168 Q 145.8 166.8 147 170.5 L 146 170.5 Q 144.5 166.1 147.5 167 L 148.5 166 Z " /><path fill="rgb(221,219,208)" stroke="rgb(221,219,208)" stroke-width="1" opacity="1" d="M 154.5 166 L 157 167 Q 158.3 171.6 155.5 173 L 153 172.5 L 153.5 171 L 152 170.5 L 155 170 Q 156.3 167 152.5 168 L 152.5 167 L 154.5 166 Z " /><path fill="rgb(221,219,208)" stroke="rgb(221,219,208)" stroke-width="1" opacity="1" d="M 163.5 166 L 166 167.5 L 166 169.5 L 166 171 L 162 171 L 163 168.5 Q 160.8 167.3 163.5 166 Z " /><path fill="rgb(221,219,208)" stroke="rgb(221,219,208)" stroke-width="1" opacity="1" d="M 168.5 166 L 171 167.5 L 171 169.5 Q 171.9 172.5 167.5 171 L 167 168.5 L 168.5 166 Z " /><path fill="rgb(221,219,208)" stroke="rgb(221,219,208)" stroke-width="1" opacity="1" d="M 173.5 166 Q 175.8 166.8 175 170.5 Q 173.5 173.5 172 170.5 L 172 168.5 L 173.5 166 Z " /><path fill="rgb(221,219,208)" stroke="rgb(221,219,208)" stroke-width="1" opacity="1" d="M 44 167 Q 47.7 165.8 46 171 Q 42.3 172.2 44 167 Z " /><path fill="rgb(221,219,208)" stroke="rgb(221,219,208)" stroke-width="1" opacity="1" d="M 96.5 167 L 99 167.5 L 98 171 Q 94.2 172.2 96.5 167 Z " /><path fill="rgb(221,219,208)" stroke="rgb(221,219,208)" stroke-width="1" opacity="1" d="M 139.5 167 L 140.5 169 L 139.5 167 Z " /><path fill="rgb(221,219,208)" stroke="rgb(221,219,208)" stroke-width="1" opacity="1" d="M 158 167 L 161 167.5 L 159 168 L 158.5 171 L 158 167 Z " /><path fill="rgb(234,120,21)" stroke="rgb(234,120,21)" stroke-width="1" opacity="1" d="M 98.5 41 L 101.5 41 L 106 45.5 L 111 56.5 L 111 67.5 L 109 73 L 91.5 67 L 90 69.5 L 92 72.5 L 101 101.5 L 104.5 108 L 107 106.5 L 110.5 97 L 133 118.5 Q 122.8 127.3 103.5 127 Q 82.9 123.6 73 109.5 L 66 94.5 L 65 75.5 Q 67.7 62.7 75.5 55 L 82 55 L 82 49.5 Q 88.1 43.1 98.5 41 Z M 91 45 L 91 55 L 82 55 L 82 64 L 92 64 L 92 55 L 101 55 L 101 45 L 91 45 Z M 72 64 L 72 74 L 82 74 L 82 64 L 72 64 Z " /><path fill="rgb(234,120,21)" stroke="rgb(234,120,21)" stroke-width="1" opacity="1" d="M 124 91 Q 126.1 92.6 131.5 92 L 142.5 96 L 146.5 96 L 148 97.5 Q 146.3 105.3 141.5 110 L 126 94.5 L 126 93 Q 123 94 124 91 Z " /></svg>